<svg width="265" height="360" viewBox="0 0 265 360" fill="none" xmlns="http://www.w3.org/2000/svg">
<line x1="264.96" y1="0.5" x2="-3.05611e-05" y2="0.499977" stroke="#EEF0F7"/>
<line x1="264.96" y1="72.3" x2="-3.05479e-05" y2="72.3" stroke="#0CB1A0" stroke-dasharray="4 4"/>
<line x1="264.96" y1="144.1" x2="-3.05479e-05" y2="144.1" stroke="#EEF0F7"/>
<line x1="264.96" y1="215.9" x2="-3.05479e-05" y2="215.9" stroke="#EEF0F7"/>
<line x1="264.96" y1="287.7" x2="-3.05479e-05" y2="287.7" stroke="#EEF0F7"/>
<line x1="264.96" y1="359.5" x2="-3.05479e-05" y2="359.5" stroke="#EEF0F7"/>
<line x1="124.76" y1="191" x2="124.76" y2="73" stroke="#0CB1A0" stroke-width="2" stroke-linecap="round"/>
<rect x="121.92" y="81" width="6.72" height="98.1791" rx="2" fill="#0CB1A0"/>
<line x1="143" y1="228" x2="143" y2="145" stroke="#0CB1A0" stroke-width="2" stroke-linecap="round"/>
<rect x="140.16" y="149.969" width="6.72" height="74.7014" rx="2" fill="#0CB1A0"/>
<line x1="161.24" y1="194.699" x2="161.24" y2="117.699" stroke="#0CB1A0" stroke-width="2" stroke-linecap="round"/>
<rect x="158.4" y="110" width="6.72" height="61.8955" rx="2" fill="#0CB1A0"/>
<line x1="88.2799" y1="305.576" x2="88.2799" y2="168.845" stroke="#0CB1A0" stroke-width="2" stroke-linecap="round"/>
<rect x="85.4399" y="195.591" width="6.72" height="91.7761" rx="2" fill="#0CB1A0"/>
<line x1="70.0399" y1="265" x2="70.0399" y2="172" stroke="#0CB1A0" stroke-width="2" stroke-linecap="round"/>
<rect x="67.2" y="184.493" width="6.72" height="73.4209" rx="2" fill="#0CB1A0"/>
<line x1="15.3199" y1="311.979" x2="15.32" y2="136.83" stroke="#0CB1A0" stroke-width="2" stroke-linecap="round"/>
<rect x="12.48" y="195.591" width="6.72" height="91.7761" rx="2" fill="#0CB1A0"/>
<line x1="33.5599" y1="265.024" x2="33.5599" y2="119.755" stroke="#0CB1A0" stroke-width="2" stroke-linecap="round"/>
<rect x="30.72" y="144.367" width="6.72" height="59.7612" rx="2" fill="#0CB1A0"/>
<line x1="197.72" y1="129" x2="197.72" y2="23" stroke="#0CB1A0" stroke-width="2" stroke-linecap="round"/>
<rect x="194.88" y="44.8445" width="6.72" height="74.7014" rx="2" fill="#0CB1A0"/>
<line x1="252.44" y1="129" x2="252.44" y2="79" stroke="#0CB1A0" stroke-width="2" stroke-linecap="round"/>
<rect x="249.6" y="94.7788" width="6.72" height="52.2185" rx="2" fill="#0CB1A0"/>
<line x1="215.96" y1="143" x2="215.96" y2="97" stroke="#EB876B" stroke-width="2" stroke-linecap="round"/>
<rect x="213.12" y="111.426" width="6.72" height="28.5461" rx="2" fill="#EB876B"/>
<line x1="234.2" y1="160" x2="234.2" y2="88" stroke="#EB876B" stroke-width="2" stroke-linecap="round"/>
<rect x="231.36" y="102.312" width="6.72" height="48.7183" rx="2" fill="#EB876B"/>
<line x1="179.48" y1="150" x2="179.48" y2="83" stroke="#EB876B" stroke-width="2" stroke-linecap="round"/>
<rect x="176.64" y="103.343" width="6.72" height="42.6865" rx="2" fill="#EB876B"/>
<path d="M52.7999 225L52.7999 140" stroke="#EB876B" stroke-width="2" stroke-linecap="round"/>
<rect x="48.96" y="161.442" width="6.72" height="53.3582" rx="2" fill="#EB876B"/>
<path d="M106.56 168L106.56 219" stroke="#EB876B" stroke-width="2" stroke-linecap="round"/>
<rect width="6.72" height="53.3582" rx="2" transform="matrix(1 0 0 -1 103.68 224.358)" fill="#EB876B"/>
</svg>
